<?xml version="1.0" encoding="utf-8"?>
<!-- Generator: Adobe Illustrator 16.0.0, SVG Export Plug-In . SVG Version: 6.00 Build 0)  -->
<!DOCTYPE svg PUBLIC "-//W3C//DTD SVG 1.1//EN" "http://www.w3.org/Graphics/SVG/1.1/DTD/svg11.dtd">
<svg version="1.1" id="Layer_1" xmlns="http://www.w3.org/2000/svg" xmlns:xlink="http://www.w3.org/1999/xlink" x="0px" y="0px"
	 width="612px" height="792px" viewBox="0 0 612 792" enable-background="new 0 0 612 792" xml:space="preserve">
<g id="Layer_2">
	<g id="Layer_1-2">
		<path fill="#FCFAFA" d="M527.896,406.279c1.482,15.146,9.022,12.89,9.538,14.114h-29.195c-0.516-0.516,8.057-0.516,6.445-12.89
			l-7.477-57.617c-0.516-1.482-0.516-3.029-1.482-3.029s-25.779,61.999-25.779,61.999c-0.516,0.967-0.967,1.482-1.998,0
			c-1.03-1.482-23.717-51.559-23.717-51.559c-0.967-2.514-2.964-6.445-3.479-7.605s-1.547-0.967-1.547,3.029l-5.994,58.003
			c-1.482,9.667,7.928,9.151,7.928,9.667h-21.011c0-0.516,7.09,0.516,8.572-10.054l7.089-63.997
			c0.404-5.906-3.389-11.286-9.087-12.89h22.17v1.031l23.137,50.85l1.031,1.031c0.516,1.482,0.516,2.513,1.482,1.031l22.686-54.136
			h21.269c0,1.031-8.572,0.516-8.572,11.085l8.121,61.935H527.896z"/>
		<path fill="#FCFAFA" d="M45.114,417.429H33.771c-4.061,0-9.087,0.451-9.087-4.06v-67.478c0-10.634,11.601-10.634,12.116-11.601
			H1.031c-0.516,0.967,11.085,0.967,11.085,12.052v65.028c0,8.507-12.116,8.507-12.116,9.022h62.966l3.545-18.625
			c-1.547,0-0.516,15.145-21.204,15.66H45.114z"/>
		<path fill="#FCFAFA" d="M568.176,377.6v32.74c0,6.444-0.516,7.089,3.995,7.089h23.201c18.626-1.031,15.081-14.114,16.628-14.63
			l-0.516,17.595h-64.964c-0.516-0.516,9.538,1.031,9.538-12.89v-60.646c0-14.114-9.022-12.052-9.022-12.89h64.448l0.773,16.821
			c-1.031,0,2.514-13.599-17.144-14.63h-21.525c-3.545,1.031-5.543-1.482-5.543,7.089V366c0,3.029,0.516,3.544,4.512,3.544h21.139
			c10.119,0,9.088-9.603,9.604-9.603v22.686c-0.516,0,0.516-10.569-9.088-10.054h-21.01c-4.512,0-5.026,1.482-5.026,4.511V377.6z"/>
		<path fill="#FCFAFA" d="M179.811,411.371c1.031,10.569,9.087,8.056,9.087,9.022h-22.686c0-0.967,9.087,0,9.087-9.538v-65.479
			c0-11.085-9.603-11.085-10.119-12.116h23.201l47.37,58.97l-0.516-47.885c0.79-5.28-2.851-10.201-8.131-10.99
			c-0.317-0.047-0.636-0.079-0.956-0.095h23.652c-5.483,0.829-9.537,5.54-9.539,11.085v74.051c0,0,0.516,5.543-3.029,1.031
			c-1.482-1.998-56.779-72.053-56.779-72.053c-0.516-1.031-0.516,0-0.516,1.546v62.451H179.811z"/>
		<path fill="#FCFAFA" d="M149.069,409.309l-31.708-75.533c-2.514-2.514-3.545,0.516-3.545,0.516
			c-3.029,7.025-32.224,77.338-32.224,77.338c-3.996,9.538-9.087,8.507-9.087,9.022h20.688c0-0.967-11.085,0.516-7.089-9.022
			l10.57-27.004c1.482-1.998,1.482-2.514,3.996-2.514h20.688c2.514,0,2.514,0,3.996,2.514l10.054,25.779
			c3.029,10.054-5.994,9.538-5.994,10.054h29.195c0.516-0.967-4.511,2.063-9.603-11.085L149.069,409.309z M102.73,378.116
			c-1.998,0-1.998-1.547-0.967-3.545c0,0,7.541-19.334,8.572-21.654c1.482-3.029,2.513-2.514,3.48,0l7.605,22.17
			c0.967,1.998,1.998,3.029-0.516,3.029H102.73z"/>
		<polygon fill="#FCFAFA" points="418.526,329.264 383.338,312.121 348.536,329.264 383.338,318.694 418.526,329.264 		"/>
		<path fill="#FCFAFA" d="M383.789,331.777c-24.484-0.431-44.683,19.068-45.114,43.553c-0.009,0.52-0.009,1.041,0,1.561
			c0,24.916,20.198,45.114,45.114,45.114s45.113-20.198,45.113-45.114c0.289-24.451-19.298-44.507-43.749-44.796
			c-0.455-0.005-0.909-0.004-1.364,0.005V331.777z M383.338,417.429L383.338,417.429c-17.144,0-28.229-16.176-28.229-40.344
			c0-28.164,11.601-41.827,28.229-41.827l0,0c16.563,0,28.164,13.663,28.164,41.827
			C411.502,401.253,399.901,416.913,383.338,417.429z"/>
		<path fill="#FCFAFA" d="M300.2,416.913c11.822-0.391,22.952-5.664,30.742-14.565c-6.385,10.988-18.036,17.852-30.742,18.11
			c-46.854,0-46.338-42.793-46.338-42.793c0.222-25.2,20.83-45.448,46.029-45.226c0.942,0.008,1.883,0.046,2.823,0.112
			c6.445,0.967,9.087,1.998,13.598,2.964c1.998,1.031,8.057,4.061,10.054,3.029c1.998-1.031,3.029-3.996,3.545-3.996v22.686
			c-1.225,0-7.024-21.977-29.195-21.977c-18.174,0-32.224,20.688-31.773,41.311C269.458,410.855,293.175,416.913,300.2,416.913
			L300.2,416.913z"/>
		<path fill="#FCFAFA" d="M147.78,453.391h3.351v23.202h11.15v3.093H147.78V453.391z"/>
		<path fill="#FCFAFA" d="M170.336,471.243l-2.771,8.442h-3.48l8.894-25.779h3.996l8.894,25.779h-3.48l-2.835-8.185L170.336,471.243
			z M178.908,468.601l-2.578-7.476c-0.58-1.74-0.967-3.287-1.353-4.77l0,0c-0.348,1.59-0.778,3.16-1.289,4.705l-2.514,7.54H178.908z
			"/>
		<path fill="#FCFAFA" d="M189.8,479.686v-25.779h3.545l8.313,12.89c1.703,2.648,3.231,5.403,4.576,8.25l0,0
			c0-3.48-0.387-6.445-0.387-10.698v-10.957h3.158v25.779h-2.771l-8.25-13.211c-1.793-2.796-3.408-5.702-4.833-8.701l0,0
			c0,3.352,0,6.445,0,10.763v11.665H189.8z"/>
		<path fill="#FCFAFA" d="M233.431,478.59c-2.183,0.901-4.536,1.319-6.896,1.225c-6.677,0.442-12.448-4.612-12.89-11.29
			c-0.035-0.532-0.035-1.066,0-1.6c-0.438-7.104,4.966-13.221,12.071-13.659c0.509-0.031,1.019-0.032,1.527-0.004
			c2.204-0.125,4.407,0.249,6.445,1.096l-0.837,2.771c-1.635-0.757-3.42-1.132-5.221-1.096c-5.36-0.388-10.021,3.644-10.408,9.005
			c-0.042,0.586-0.032,1.174,0.032,1.758c-0.582,5.164,3.133,9.822,8.297,10.403c0.562,0.063,1.128,0.076,1.692,0.038
			c1.884,0.039,3.754-0.335,5.478-1.096L233.431,478.59z"/>
		<path fill="#FCFAFA" d="M259.082,466.151c0.748,6.687-4.066,12.712-10.751,13.459c-0.432,0.049-0.866,0.073-1.3,0.075
			c-6.584-0.085-11.853-5.491-11.768-12.075c0.003-0.271,0.016-0.543,0.038-0.814c-0.749-6.792,4.151-12.906,10.944-13.655
			c0.368-0.04,0.738-0.064,1.108-0.072c6.549,0.037,11.829,5.375,11.793,11.924C259.143,465.38,259.122,465.767,259.082,466.151z
			 M238.845,466.796c0,5.607,3.029,10.57,8.378,10.57s8.314-4.898,8.314-10.828c0-5.929-2.707-10.569-8.314-10.569
			S238.845,460.867,238.845,466.796z"/>
		<path fill="#FCFAFA" d="M285.441,468.021c0-3.673-0.451-8.056-0.387-11.278l0,0c-0.902,3.008-1.998,6.295-3.287,9.86l-4.576,12.89
			h-2.643l-4.253-12.696c-1.289-3.673-2.256-7.024-3.029-10.118l0,0c0,3.287,0,7.605-0.516,11.536l-0.773,11.472h-3.158
			l1.804-25.779h4.318l4.382,12.567c1.096,3.223,1.998,6.059,2.643,8.83l0,0c0.748-2.968,1.651-5.894,2.707-8.766l4.641-12.89h4.318
			l1.611,25.779h-3.287L285.441,468.021z"/>
		<path fill="#FCFAFA" d="M308.063,467.247h-10.119v9.41h11.408v3.028h-14.759v-25.779h14.05v2.771h-10.699v8.25h10.119V467.247z"/>
		<path fill="#FCFAFA" d="M321.339,475.304c1.804,1.11,3.875,1.712,5.993,1.74c3.48,0,5.479-1.805,5.479-4.447
			s-1.418-3.867-4.898-5.156c-3.479-1.288-6.896-3.737-6.896-7.411c0.214-4.123,3.729-7.293,7.853-7.079
			c0.197,0.011,0.395,0.028,0.59,0.055c1.983-0.071,3.954,0.35,5.736,1.224L334.293,457c-1.517-0.84-3.229-1.263-4.963-1.225
			c-3.545,0-4.897,2.127-4.897,3.867s1.546,3.609,5.155,5.027s6.445,3.866,6.445,7.669s-2.707,7.347-8.895,7.347
			c-2.258,0.016-4.48-0.562-6.444-1.675L321.339,475.304z"/>
		<path fill="#FCFAFA" d="M344.024,469.31L344.024,469.31l1.611-2.127l5.478-6.444h4.125l-7.218,7.669l8.313,11.278h-4.125
			l-6.444-8.958l-1.74,1.934v7.024h-3.352v-27.712h3.352V469.31z"/>
		<path fill="#FCFAFA" d="M363.295,455.453c0.037,1.139-0.854,2.092-1.993,2.13c-0.066,0.002-0.133,0.001-0.198-0.003
			c-1.14,0.001-2.063-0.922-2.063-2.062c0-0.021,0-0.043,0.001-0.065c0.001-1.174,0.953-2.126,2.128-2.125
			C362.343,453.329,363.294,454.28,363.295,455.453z M359.492,479.686v-18.689h3.352v18.689H359.492z"/>
		<path fill="#FCFAFA" d="M368.515,465.766c0-1.934,0-3.48,0-5.027h2.965v3.094l0,0c1.233-2.219,3.585-3.58,6.122-3.545
			c2.578,0,6.445,1.547,6.445,7.991v11.407h-3.416v-11.021c0-3.028-1.096-5.542-4.318-5.542c-2.117,0.049-3.963,1.452-4.575,3.479
			c-0.07,0.514-0.07,1.034,0,1.547v11.536h-3.416L368.515,465.766z"/>
		<path fill="#FCFAFA" d="M416.464,478.59c-2.182,0.907-4.535,1.325-6.896,1.225c-6.715,0.404-12.486-4.712-12.89-11.428
			c-0.029-0.486-0.029-0.975,0-1.462c-0.438-7.104,4.966-13.221,12.071-13.659c0.508-0.031,1.019-0.032,1.527-0.004
			c2.203-0.125,4.406,0.249,6.444,1.096l-0.838,2.771c-1.632-0.764-3.419-1.139-5.22-1.096c-5.36-0.388-10.021,3.644-10.408,9.005
			c-0.043,0.586-0.032,1.174,0.032,1.758c-0.582,5.164,3.133,9.822,8.297,10.403c0.562,0.063,1.128,0.076,1.692,0.038
			c1.905,0.049,3.799-0.325,5.542-1.096L416.464,478.59z"/>
		<path fill="#FCFAFA" d="M430.707,479.686v-2.384l0,0c-1.346,1.812-3.479,2.866-5.735,2.835c-2.947,0.214-5.509-2.001-5.723-4.947
			c-0.012-0.155-0.016-0.311-0.014-0.466c0-4.512,4.061-6.961,11.278-6.961v-0.387c0.262-2.119-1.244-4.05-3.364-4.311
			c-0.295-0.037-0.594-0.039-0.889-0.007c-1.736-0.016-3.439,0.477-4.898,1.418l-0.773-2.256c1.936-1.184,4.178-1.767,6.444-1.676
			c5.672,0,7.09,3.932,7.09,7.669v7.025c-0.104,1.48-0.104,2.966,0,4.446H430.707z M430.191,470.147
			c-3.673,0-7.927,0.58-7.927,4.189c-0.145,1.667,1.09,3.135,2.757,3.278c0.133,0.012,0.268,0.015,0.401,0.009
			c2.05,0.058,3.901-1.221,4.575-3.158c0.057-0.363,0.057-0.732,0-1.096L430.191,470.147z"/>
		<path fill="#FCFAFA" d="M438.957,466.796c0-2.19,0-4.06,0-5.8h2.964v3.674l0,0c0.589-2.492,2.79-4.27,5.35-4.318h0.902v3.223
			c-0.383-0.075-0.777-0.075-1.16,0c-2.38,0.09-4.317,1.944-4.512,4.317c-0.063,0.535-0.063,1.076,0,1.611v10.183h-3.415
			L438.957,466.796z"/>
		<path fill="#FCFAFA" d="M453.135,470.728c-0.298,3.261,2.104,6.146,5.365,6.445c0.359,0.032,0.721,0.032,1.08,0
			c1.788,0.043,3.566-0.286,5.221-0.967l0.579,2.448c-2.044,0.83-4.239,1.225-6.444,1.16c-4.796,0.302-8.928-3.342-9.229-8.137
			c-0.026-0.424-0.022-0.85,0.014-1.272c-0.534-4.99,3.078-9.469,8.068-10.003c0.296-0.031,0.593-0.048,0.89-0.051
			c4.377,0.113,7.832,3.754,7.719,8.13c-0.006,0.234-0.022,0.468-0.05,0.699c0.079,0.534,0.079,1.077,0,1.611L453.135,470.728z
			 M463.061,468.278c0.427-2.599-1.333-5.052-3.933-5.479c-0.234-0.038-0.471-0.06-0.708-0.063c-2.92,0.201-5.193,2.615-5.221,5.542
			H463.061z"/>
	</g>
</g>
</svg>
