<svg xmlns="http://www.w3.org/2000/svg" viewBox="0 0 94.96 26.03"><defs><style>.cls-1,.cls-2{fill:#27316c;}.cls-1{fill-rule:evenodd;}</style></defs><g id="Layer_2" data-name="Layer 2"><g id="Layer_1-2" data-name="Layer 1"><path class="cls-1" d="M81.91,14.61c.23,2.35,1.4,2,1.48,2.19H78.86c-.08-.08,1.25-.08,1-2L78.7,5.86c-.08-.23-.08-.47-.23-.47s-4,9.62-4,9.62c-.08.15-.15.23-.31,0s-3.68-8-3.68-8c-.15-.39-.46-1-.54-1.18s-.24-.15-.24.47l-.93,9C68.54,16.8,70,16.72,70,16.8H66.74c0-.08,1.1.08,1.33-1.56l1.1-9.93a1.94,1.94,0,0,0-1.41-2H71.2v.16l3.59,7.89.16.16c.08.23.08.39.23.16L78.7,3.28H82c0,.16-1.33.08-1.33,1.72l1.26,9.61Z"/><path class="cls-1" d="M7,16.34H5.24c-.63,0-1.41.07-1.41-.63V5.24c0-1.65,1.8-1.65,1.88-1.8H.16c-.08.15,1.72.15,1.72,1.87V15.4C1.88,16.72,0,16.72,0,16.8H9.77l.55-2.89c-.24,0-.08,2.35-3.29,2.43Z"/><path class="cls-1" d="M88.16,10.16v5.08c0,1-.08,1.1.62,1.1h3.6c2.89-.16,2.34-2.19,2.58-2.27l-.08,2.73H84.8c-.08-.08,1.48.16,1.48-2V5.39c0-2.19-1.4-1.87-1.4-2h10L95,6c-.16,0,.39-2.11-2.66-2.27H89c-.55.16-.86-.23-.86,1.1V8.36c0,.47.08.55.7.55h3.28c1.57,0,1.41-1.49,1.49-1.49v3.52c-.08,0,.08-1.64-1.41-1.56H88.94c-.7,0-.78.23-.78.7v.08Z"/><path class="cls-1" d="M27.9,15.4c.16,1.64,1.41,1.25,1.41,1.4H25.79c0-.15,1.41,0,1.41-1.48V5.16c0-1.72-1.49-1.72-1.57-1.88h3.6l7.35,9.15L36.5,5a1.5,1.5,0,0,0-1.41-1.72h3.67A1.74,1.74,0,0,0,37.28,5V16.49s.08.86-.47.16C36.58,16.34,28,5.47,28,5.47c-.08-.16-.08,0-.08.24V15.4Z"/><path class="cls-1" d="M23.13,15.08,18.21,3.36c-.39-.39-.55.08-.55.08-.47,1.09-5,12-5,12-.62,1.48-1.41,1.32-1.41,1.4h3.21c0-.15-1.72.08-1.1-1.4L15,11.25c.23-.31.23-.39.62-.39h3.21c.39,0,.39,0,.62.39l1.56,4c.47,1.56-.93,1.48-.93,1.56h4.53c.08-.15-.7.32-1.49-1.72Zm-7.19-4.84c-.31,0-.31-.24-.15-.55,0,0,1.17-3,1.33-3.36.23-.47.39-.39.54,0l1.18,3.44c.15.31.31.47-.08.47Z"/><polygon class="cls-1" points="64.94 2.66 59.48 0 54.08 2.66 59.48 1.02 64.94 2.66 64.94 2.66"/><path class="cls-1" d="M59.55,3.05a6.88,6.88,0,0,0-7,7,7,7,0,0,0,14,0,6.87,6.87,0,0,0-7-6.95Zm-.07,13.29h0c-2.66,0-4.38-2.51-4.38-6.26,0-4.37,1.8-6.49,4.38-6.49h0c2.57,0,4.37,2.12,4.37,6.49,0,3.75-1.8,6.18-4.37,6.26Z"/><path class="cls-1" d="M46.58,16.26A6.63,6.63,0,0,0,51.35,14a5.65,5.65,0,0,1-4.77,2.81c-7.27,0-7.19-6.64-7.19-6.64a7.08,7.08,0,0,1,7.58-7c1,.15,1.41.31,2.11.46.31.16,1.25.63,1.56.47s.47-.62.55-.62V7C51,7,50.1,3.59,46.66,3.59c-2.82,0-5,3.21-4.93,6.41.08,5.32,3.76,6.26,4.85,6.26Z"/><path class="cls-2" d="M22.93,21.92h.52v3.6h1.73V26H22.93Z"/><path class="cls-2" d="M26.43,24.69,26,26h-.54l1.38-4h.62l1.38,4H28.3l-.44-1.27Zm1.33-.41-.4-1.16c-.09-.27-.15-.51-.21-.74h0a7.27,7.27,0,0,1-.2.73l-.39,1.17Z"/><path class="cls-2" d="M29.45,26v-4H30l1.29,2A11.26,11.26,0,0,1,32,25.28h0c0-.54-.06-1-.06-1.66V21.92h.49v4H32l-1.28-2.05a12.22,12.22,0,0,1-.75-1.35h0c0,.52,0,1,0,1.67V26Z"/><path class="cls-2" d="M36.22,25.83a2.54,2.54,0,0,1-1.07.19,1.88,1.88,0,0,1-2-2,2,2,0,0,1,2.11-2.12,2.27,2.27,0,0,1,1,.17l-.13.43a1.84,1.84,0,0,0-.81-.17A1.51,1.51,0,0,0,33.71,24a1.46,1.46,0,0,0,1.55,1.62,2,2,0,0,0,.85-.17Z"/><path class="cls-2" d="M40.2,23.9A1.89,1.89,0,0,1,38.33,26,1.85,1.85,0,0,1,36.51,24a1.92,1.92,0,0,1,1.87-2.13A1.84,1.84,0,0,1,40.2,23.9ZM37.06,24c0,.87.47,1.64,1.3,1.64s1.29-.76,1.29-1.68-.42-1.64-1.29-1.64S37.06,23.08,37.06,24Z"/><path class="cls-2" d="M44.29,24.19c0-.57-.07-1.25-.06-1.75h0q-.21.7-.51,1.53l-.71,2H42.6L41.94,24c-.2-.57-.35-1.09-.47-1.57h0c0,.51,0,1.18-.08,1.79L41.27,26h-.49l.28-4h.67l.68,1.95c.17.5.31.94.41,1.37h0a13.5,13.5,0,0,1,.42-1.36l.72-2h.67l.25,4h-.51Z"/><path class="cls-2" d="M47.8,24.07H46.23v1.46H48V26H45.71v-4h2.18v.43H46.23v1.28H47.8Z"/><path class="cls-2" d="M49.86,25.32a1.82,1.82,0,0,0,.93.27c.54,0,.85-.28.85-.69s-.22-.6-.76-.8-1.07-.58-1.07-1.15a1.16,1.16,0,0,1,1.31-1.09,1.87,1.87,0,0,1,.89.19l-.14.43a1.52,1.52,0,0,0-.77-.19c-.55,0-.76.33-.76.6s.24.56.8.78,1,.6,1,1.19S51.72,26,50.76,26a2,2,0,0,1-1-.26Z"/><path class="cls-2" d="M53.38,24.39h0l.25-.33.85-1h.64L54,24.25,55.29,26h-.64l-1-1.39-.27.3V26h-.52V21.7h.52Z"/><path class="cls-2" d="M56.37,22.24a.32.32,0,0,1-.34.33.32.32,0,0,1-.32-.33.33.33,0,0,1,.66,0ZM55.78,26v-2.9h.52V26Z"/><path class="cls-2" d="M57.18,23.84c0-.3,0-.54,0-.78h.46l0,.48h0a1.07,1.07,0,0,1,.95-.55c.4,0,1,.24,1,1.24V26h-.53V24.29c0-.47-.17-.86-.67-.86a.76.76,0,0,0-.71.54.88.88,0,0,0,0,.24V26h-.53Z"/><path class="cls-2" d="M64.62,25.83a2.51,2.51,0,0,1-1.07.19,1.89,1.89,0,0,1-2-2,2,2,0,0,1,2.11-2.12,2.27,2.27,0,0,1,1,.17l-.13.43a1.81,1.81,0,0,0-.81-.17A1.51,1.51,0,0,0,62.11,24a1.46,1.46,0,0,0,1.55,1.62,2,2,0,0,0,.86-.17Z"/><path class="cls-2" d="M66.83,26l0-.37h0a1.09,1.09,0,0,1-.89.44.83.83,0,0,1-.89-.84c0-.7.63-1.08,1.75-1.08v-.06a.6.6,0,0,0-.66-.67,1.38,1.38,0,0,0-.76.22l-.12-.35a1.78,1.78,0,0,1,1-.26c.88,0,1.1.61,1.1,1.19v1.09a4.93,4.93,0,0,0,0,.69Zm-.08-1.48c-.57,0-1.23.09-1.23.65a.47.47,0,0,0,.49.51.73.73,0,0,0,.71-.49.55.55,0,0,0,0-.17Z"/><path class="cls-2" d="M68.11,24c0-.34,0-.63,0-.9h.46l0,.57h0A.87.87,0,0,1,69.4,23l.14,0v.5a.47.47,0,0,0-.18,0,.73.73,0,0,0-.7.67,1.06,1.06,0,0,0,0,.25V26h-.53Z"/><path class="cls-2" d="M70.31,24.61a.92.92,0,0,0,1,1,2,2,0,0,0,.81-.15l.09.38a2.47,2.47,0,0,1-1,.18,1.35,1.35,0,0,1-1.43-1.46A1.41,1.41,0,0,1,71.17,23a1.23,1.23,0,0,1,1.19,1.37.86.86,0,0,1,0,.25Zm1.54-.38a.74.74,0,0,0-.72-.86.87.87,0,0,0-.81.86Z"/></g></g></svg>